<svg t="1617963045430" class="icon" viewBox="0 0 1024 1024" version="1.1" xmlns="http://www.w3.org/2000/svg" p-id="10494" width="200" height="200"><path d="M474.2144 1021.952c-2.2528-1.024-7.7824-1.8432-12.288-1.8432-9.216-0.2048-47.3088-5.7344-58.368-8.3968-3.8912-1.024-14.1312-3.4816-22.528-5.3248-40.96-9.4208-96.6656-32.768-136.8064-57.5488-52.8384-32.768-104.8576-79.4624-140.9024-127.3856-39.3216-51.8144-71.2704-116.3264-86.8352-175.3088-6.7584-25.6-12.288-53.8624-12.288-62.6688 0-4.3008-1.024-8.3968-2.048-9.0112-2.8672-1.6384-2.8672-123.2896 0-124.928 1.024-0.6144 2.048-4.7104 2.048-9.0112 0-8.8064 5.5296-37.0688 12.288-62.6688 19.2512-72.704 63.2832-153.6 114.0736-208.6912 16.9984-18.432 54.0672-52.0192 76.1856-68.608 52.8384-40.1408 127.1808-74.1376 191.6928-87.2448 40.7552-8.3968 74.752-11.8784 113.664-11.8784 39.7312-0.2048 78.4384 4.096 115.712 12.6976 4.5056 1.024 14.1312 3.2768 21.504 4.9152s15.1552 3.6864 17.408 4.5056c93.5936 34.2016 149.504 68.608 207.6672 127.7952 43.8272 44.6464 70.8608 81.92 93.5936 129.2288 14.1312 29.2864 15.1552 31.744 23.9616 54.272 10.24 26.4192 10.0352 26.0096 11.6736 33.792 1.024 3.8912 3.072 13.7216 4.9152 21.504 3.6864 15.7696 8.6016 44.4416 12.0832 69.632 2.6624 21.0944 2.6624 83.3536 0 104.448-3.4816 25.1904-8.3968 53.8624-12.0832 69.632-1.8432 7.9872-3.8912 17.6128-4.9152 21.504-1.6384 7.5776-15.9744 46.08-22.9376 61.44-14.1312 31.1296-19.0464 40.96-30.5152 59.8016-19.6608 32.9728-43.8272 63.488-75.776 96.0512-53.8624 54.6816-105.6768 88.064-185.1392 119.1936-24.576 9.6256-28.2624 10.6496-69.632 19.8656-7.168 1.6384-33.1776 5.7344-60.416 9.4208-15.7696 2.048-80.6912 2.8672-84.992 0.8192z" fill="#45BB35" p-id="10495"></path><path d="M754.176 760.6272c-2.4576-1.6384-15.5648-9.4208-29.0816-16.9984l-24.7808-14.1312-14.7456 3.6864c-38.5024 9.216-72.4992 9.216-109.3632 0-28.2624-7.3728-63.6928-28.4672-84.7872-50.5856-39.3216-41.3696-51.6096-92.7744-34.4064-143.5648 9.8304-29.0816 32.1536-57.5488 61.0304-78.2336 18.432-13.1072 35.6352-21.0944 62.6688-29.0816 18.432-5.5296 23.552-6.144 50.176-6.3488 30.1056-0.2048 40.96 1.4336 64.512 9.216 35.84 11.8784 60.8256 27.0336 83.1488 50.176 18.8416 19.2512 27.4432 33.5872 34.6112 56.9344 8.192 26.8288 8.8064 56.5248 1.2288 78.848-7.5776 22.528-23.3472 44.4416-48.7424 68.4032-20.48 19.2512-22.1184 21.504-20.48 26.0096 1.2288 2.6624 3.2768 9.0112 4.7104 14.1312 1.2288 5.12 4.3008 14.5408 6.3488 21.2992 2.048 6.5536 3.4816 12.288 3.072 12.6976s-2.6624-0.6144-5.12-2.4576z m-165.0688-201.728c9.6256-5.9392 13.1072-11.6736 13.1072-21.504 0-7.3728-1.2288-9.6256-8.192-15.9744-6.9632-6.144-9.6256-7.3728-17.408-7.3728-11.264 0-18.0224 5.5296-21.2992 17.408-3.072 11.4688 0.8192 21.2992 11.0592 27.0336s14.1312 5.9392 22.7328 0.4096z m119.6032 1.2288c8.192-4.3008 15.1552-14.7456 14.9504-22.7328-0.2048-9.0112-9.0112-20.0704-18.0224-22.7328-15.5648-4.9152-29.696 6.144-29.696 22.9376 0 9.6256 3.8912 16.1792 13.1072 21.7088 7.5776 4.7104 11.8784 4.9152 19.6608 0.8192z" fill="#FFFFFF" p-id="10496"></path><path d="M268.1856 655.9744c3.6864-6.7584 10.4448-24.576 15.9744-42.5984 1.6384-5.5296 3.8912-11.8784 4.9152-13.7216 3.4816-6.5536 2.048-9.0112-11.0592-18.432-20.6848-15.36-44.6464-43.2128-55.9104-65.536-19.6608-38.912-22.528-84.992-7.5776-126.5664 29.9008-83.5584 132.7104-141.1072 231.424-129.8432 12.9024 1.6384 26.8288 3.6864 30.9248 4.9152 4.096 1.024 9.8304 2.048 12.288 2.048 7.168 0 44.2368 15.36 60.8256 24.9856 41.5744 24.3712 75.3664 63.8976 86.6304 101.376 2.4576 7.9872 4.5056 15.1552 4.5056 15.7696s-5.3248 1.2288-11.6736 1.2288c-30.72 0.2048-70.4512 9.4208-98.0992 22.9376-16.384 7.9872-42.8032 29.0816-55.296 43.8272-33.5872 40.3456-46.8992 100.7616-32.5632 147.456 1.2288 3.8912 0.4096 4.7104-6.9632 5.9392-17.2032 2.8672-59.1872-1.4336-81.3056-8.192l-8.3968-2.6624-36.6592 18.2272c-20.0704 10.0352-37.4784 19.2512-38.5024 20.2752-3.2768 3.2768-5.5296 2.2528-3.4816-1.4336z m100.9664-256c12.9024-12.6976 12.4928-30.1056-1.2288-43.4176-6.144-5.9392-8.192-6.7584-18.432-6.7584-14.336-0.2048-24.3712 6.5536-28.0576 18.6368-9.4208 31.5392 24.576 54.0672 47.7184 31.5392z m153.3952 0.2048c13.1072-12.6976 13.1072-27.8528 0.4096-41.984-6.9632-7.5776-7.7824-7.9872-19.6608-7.9872-14.7456 0-24.1664 5.9392-28.0576 17.6128-3.4816 10.24-1.4336 24.576 4.096 30.5152 12.9024 13.7216 30.3104 14.5408 43.2128 1.8432z" fill="#FFFFFF" p-id="10497"></path></svg>